<?xml version="1.0" encoding="UTF-8"?>
<svg version="1.1" xmlns="http://www.w3.org/2000/svg" width="512" height="512">
<path d="M0 0 C1.10794922 -0.01260864 2.21589844 -0.02521729 3.35742188 -0.03820801 C4.54916016 -0.03011108 5.74089844 -0.02201416 6.96875 -0.01367188 C8.19658203 -0.01749878 9.42441406 -0.02132568 10.68945312 -0.02526855 C13.28516459 -0.02799029 15.88090336 -0.02061099 18.4765625 -0.00390625 C22.45374599 0.01749738 26.42912282 -0.0037015 30.40625 -0.02929688 C32.92708733 -0.02665365 35.44792353 -0.02152878 37.96875 -0.01367188 C39.16048828 -0.0217688 40.35222656 -0.02986572 41.58007812 -0.03820801 C43.24200195 -0.01929504 43.24200195 -0.01929504 44.9375 0 C45.91138672 0.00318237 46.88527344 0.00636475 47.88867188 0.00964355 C51.27982566 0.67725289 52.44432128 1.74092988 54.46875 4.51757812 C54.97668457 7.09765625 54.97668457 7.09765625 54.98632812 10.04882812 C54.99893677 11.15677734 55.01154541 12.26472656 55.02453613 13.40625 C55.01239075 15.19385742 55.01239075 15.19385742 55 17.01757812 C55.0038269 18.24541016 55.00765381 19.47324219 55.01159668 20.73828125 C55.01431842 23.33399272 55.00693911 25.92973149 54.99023438 28.52539062 C54.96883075 32.50257412 54.99002963 36.47795094 55.015625 40.45507812 C55.01298177 42.97591545 55.00785691 45.49675166 55 48.01757812 C55.00809692 49.20931641 55.01619385 50.40105469 55.02453613 51.62890625 C55.00562317 53.29083008 55.00562317 53.29083008 54.98632812 54.98632812 C54.98314575 55.96021484 54.97996338 56.93410156 54.97668457 57.9375 C54.32671634 61.23904494 53.05337403 62.43335467 50.46875 64.51757812 C48.46875 65.04882812 48.46875 65.04882812 46.46875 65.01757812 C45.47875 65.03304687 45.47875 65.03304687 44.46875 65.04882812 C41.49992516 64.26023403 40.37479869 62.91011194 38.46875 60.51757812 C37.92285156 57.30957031 37.92285156 57.30957031 37.859375 53.56445312 C37.84283875 52.90423157 37.82630249 52.24401001 37.80926514 51.56378174 C37.76086549 49.46495186 37.73943481 47.36684591 37.71875 45.26757812 C37.69058317 43.84045853 37.66065472 42.41337254 37.62890625 40.98632812 C37.55511237 37.49690204 37.50548721 34.0076134 37.46875 30.51757812 C36.88822184 31.09902808 36.30769367 31.68047804 35.70957375 32.27954769 C21.59999817 46.41118383 7.4876732 60.54006909 -6.62773705 74.66587734 C-13.45370412 81.49700614 -20.278729 88.32907139 -27.1015625 95.16333008 C-33.04662426 101.11834242 -38.99342709 107.07160954 -44.94234908 113.0227657 C-48.09373923 116.17546231 -51.24423575 119.32904067 -54.3926506 122.48470879 C-57.35350636 125.45233064 -60.31667694 128.41762081 -63.28167152 131.38110733 C-64.37179891 132.47151078 -65.46106379 133.56277729 -66.5494175 134.6549511 C-68.03093178 136.1414118 -69.5154657 137.62478854 -71.00082397 139.10740662 C-71.83228125 139.93978568 -72.66373852 140.77216475 -73.52039146 141.62976742 C-76.88738363 144.79072765 -79.0076748 144.64013505 -83.54150391 144.63110352 C-84.80266022 144.63102798 -86.06381653 144.63095245 -87.3631897 144.63087463 C-88.74473103 144.62576762 -90.12627196 144.62055162 -91.5078125 144.61523438 C-92.9174291 144.61336956 -94.32704634 144.61194596 -95.73666382 144.61094666 C-99.44878932 144.60712646 -103.16087578 144.59730041 -106.87298584 144.58624268 C-110.66011019 144.57601788 -114.44724083 144.57144674 -118.234375 144.56640625 C-125.66668448 144.5556777 -133.09896177 144.53860723 -140.53125 144.51757812 C-140.75546379 145.94048409 -140.75546379 145.94048409 -140.98420715 147.39213562 C-141.45088788 150.0584419 -141.97262312 151.90401076 -143.16796875 154.28710938 C-143.49450439 154.94356445 -143.82104004 155.60001953 -144.1574707 156.27636719 C-144.50769287 156.9540918 -144.85791504 157.63181641 -145.21875 158.33007812 C-145.76438599 159.39500488 -145.76438599 159.39500488 -146.32104492 160.48144531 C-157.44874576 181.89877747 -174.45384392 196.65052461 -197.19921875 204.83789062 C-201.38956625 206.13983979 -205.57143763 207.30809626 -209.85905457 208.24388123 C-213.95559467 209.6647616 -216.31900067 211.63331577 -219.2512207 214.68579102 C-219.77572311 215.21116959 -220.30022552 215.73654816 -220.84062195 216.27784729 C-222.55810421 218.00385764 -224.25730808 219.74674838 -225.95703125 221.49023438 C-227.15175629 222.69683559 -228.34767271 223.90225822 -229.54472351 225.10655212 C-232.68341818 228.26993057 -235.80722864 231.44759786 -238.92767334 234.62896729 C-243.33793492 239.11986755 -247.76832542 243.59092727 -252.19633484 248.0643158 C-254.55307699 250.44532297 -256.9042052 252.83166884 -259.25105286 255.22242737 C-260.3201039 256.30788659 -261.38916947 257.39333151 -262.45825195 258.47875977 C-263.18837997 259.22606354 -263.18837997 259.22606354 -263.93325806 259.98846436 C-267.30521672 263.40456148 -267.30521672 263.40456148 -269.53125 264.51757812 C-271.16510137 264.23833964 -272.78553603 263.87936023 -274.39550781 263.48510742 C-293.94560704 259.15419367 -318.23433866 256.06316319 -336.14149475 267.130867 C-363.21150797 286.07679302 -385.64615617 313.53210434 -407.04378128 338.45421886 C-407.89342012 339.43860172 -407.89342012 339.43860172 -408.76022339 340.44287109 C-409.25045424 341.0158493 -409.74068508 341.58882751 -410.24577141 342.1791687 C-412.5914438 344.62142643 -413.902491 344.54751692 -417.40625 344.83007812 C-420.36093653 344.77098439 -421.42183393 344.58322776 -424.03125 343.01757812 C-425.72281465 340.19830371 -426.279184 337.94237349 -426.10953045 334.64442539 C-425.3952338 332.0173266 -424.30424762 330.73748134 -422.46626282 328.73802185 C-421.51123839 327.69417485 -421.51123839 327.69417485 -420.53692055 326.62924004 C-417.36281972 323.28740115 -414.1475015 319.99461781 -410.88354492 316.74047852 C-409.78955383 315.64385895 -409.78955383 315.64385895 -408.67346191 314.52508545 C-406.28870449 312.13596565 -403.90035471 309.75047594 -401.51171875 307.36523438 C-399.84485001 305.69769142 -398.17812969 304.03000009 -396.5115509 302.36216736 C-393.03251615 298.88166363 -389.55169214 295.40296204 -386.06958008 291.92553711 C-381.59931929 287.46099983 -377.13359859 282.99195234 -372.66918468 278.52156925 C-369.23530732 275.08408734 -365.79906297 271.64897956 -362.36208534 268.2145977 C-360.71345869 266.56663924 -359.0655776 264.91793456 -357.41844749 263.2684803 C-355.12536423 260.97286943 -352.82912081 258.68046807 -350.53198242 256.38891602 C-349.8488649 255.70377426 -349.16574738 255.01863251 -348.46192932 254.31272888 C-347.83823456 253.69185394 -347.21453979 253.070979 -346.57194519 252.43128967 C-346.02980472 251.88952622 -345.48766424 251.34776278 -344.92909527 250.78958225 C-342.88937399 248.93348706 -341.90372375 248.50253898 -339.11676025 248.61506653 C-338.09886414 248.71413803 -337.08096802 248.81320953 -336.03222656 248.9152832 C-300.30787858 253.0248716 -300.30787858 253.0248716 -267.74398804 241.50642395 C-256.9638824 232.36814456 -244.93200372 220.31908556 -238.53125 207.51757812 C-239.09070313 207.50339844 -239.65015625 207.48921875 -240.2265625 207.47460938 C-260.28774961 206.28125902 -278.75223036 193.96947085 -292.21875 179.76757812 C-306.76542535 162.93499665 -314.16469061 142.81575119 -313.96875 120.70507812 C-313.95972656 119.47821289 -313.95070313 118.25134766 -313.94140625 116.98730469 C-313.63715149 101.00970427 -309.37670127 88.34623726 -301.53125 74.51757812 C-301.04785156 73.66550781 -300.56445312 72.8134375 -300.06640625 71.93554688 C-287.61808412 51.90998519 -267.1088053 39.15400589 -244.53125 33.51757812 C-221.93747257 28.35192209 -199.20706782 33.2471316 -179.53125 44.51757812 C-178.68046875 45.00097656 -177.8296875 45.484375 -176.953125 45.98242188 C-157.897664 57.80640397 -144.72298667 77.12009198 -139.09375 98.64257812 C-137.56637019 105.31605698 -137.33721064 111.74596898 -137.43359375 118.57226562 C-137.44064331 119.53382568 -137.44769287 120.49538574 -137.45495605 121.48608398 C-137.4731661 123.83008089 -137.49872621 126.17374363 -137.53125 128.51757812 C-119.11989647 132.21256631 -96.56704023 135.10496652 -80.03541327 124.27209008 C-71.49523763 118.23093158 -63.96910086 110.97658803 -56.609375 103.57617188 C-56.01570066 102.97921525 -55.42202633 102.38225862 -54.81036186 101.76721239 C-47.4384411 94.31088395 -40.30320128 86.64619767 -33.23921537 78.89890063 C-27.13264678 72.21281362 -20.87209839 65.67901204 -14.59784174 59.15067375 C-1.73753075 45.76289964 10.92844677 32.20523573 23.46875 18.51757812 C22.33445557 18.49570435 22.33445557 18.49570435 21.17724609 18.47338867 C17.73224723 18.39865813 14.28819079 18.30207885 10.84375 18.20507812 C9.65394531 18.18251953 8.46414063 18.15996094 7.23828125 18.13671875 C-3.92018545 17.79386083 -3.92018545 17.79386083 -8.53125 14.51757812 C-10.09596233 11.38815347 -10.22826958 7.90675589 -9.53125 4.51757812 C-6.5621367 0.81340983 -4.70291777 0.01536774 0 0 Z " fill="#FEB632" transform="translate(441.53125,47.482421875)"/>
<path d="M0 0 C3.07309546 2.71063023 5.98915465 5.55608596 8.890625 8.44921875 C9.5609375 9.09632812 10.23125 9.7434375 10.921875 10.41015625 C23.58775158 23.59418232 28.20596372 41.93745527 28.2734375 59.76318359 C27.85371105 79.12743836 19.52201838 95.95932773 5.890625 109.44921875 C5.22804688 110.1453125 4.56546875 110.84140625 3.8828125 111.55859375 C-6.94707046 122.1825854 -23.07887423 128.53911503 -38.109375 129.44921875 C-39.39521484 129.52849609 -39.39521484 129.52849609 -40.70703125 129.609375 C-59.37645398 130.18729791 -77.12848665 124.51711617 -91.234375 112.13671875 C-92.87387523 110.58944041 -94.49951101 109.02730911 -96.109375 107.44921875 C-96.810625 106.7840625 -97.511875 106.11890625 -98.234375 105.43359375 C-110.74943834 92.62520862 -116.4228343 74.32278133 -116.546875 56.76171875 C-116.29571146 39.05782857 -110.13622016 22.65566919 -98.109375 9.44921875 C-97.43261719 8.69253906 -96.75585938 7.93585938 -96.05859375 7.15625 C-72.0361821 -18.31689343 -27.50754048 -23.27233366 0 0 Z " fill="#FFD239" transform="translate(260.109375,110.55078125)"/>
<path d="M0 0 C15.84 0 31.68 0 48 0 C48 100.32 48 200.64 48 304 C32.16 304 16.32 304 0 304 C0 203.68 0 103.36 0 0 Z " fill="#2D85CC" transform="translate(440,152)"/>
<path d="M0 0 C15.84 0 31.68 0 48 0 C48 79.2 48 158.4 48 240 C32.16 240 16.32 240 0 240 C0 160.8 0 81.6 0 0 Z " fill="#2D85CC" transform="translate(360,216)"/>
<path d="M0 0 C15.84 0 31.68 0 48 0 C48 60.72 48 121.44 48 184 C32.16 184 16.32 184 0 184 C0 123.28 0 62.56 0 0 Z " fill="#2D85CC" transform="translate(280,272)"/>
<path d="M0 0 C15.84 0 31.68 0 48 0 C48 39.6 48 79.2 48 120 C32.16 120 16.32 120 0 120 C0 80.4 0 40.8 0 0 Z " fill="#2D85CC" transform="translate(200,336)"/>
<path d="M0 0 C1.10794922 -0.01260864 2.21589844 -0.02521729 3.35742188 -0.03820801 C4.54916016 -0.03011108 5.74089844 -0.02201416 6.96875 -0.01367188 C8.19658203 -0.01749878 9.42441406 -0.02132568 10.68945312 -0.02526855 C13.28516459 -0.02799029 15.88090336 -0.02061099 18.4765625 -0.00390625 C22.45374599 0.01749738 26.42912282 -0.0037015 30.40625 -0.02929688 C32.92708733 -0.02665365 35.44792353 -0.02152878 37.96875 -0.01367188 C39.16048828 -0.0217688 40.35222656 -0.02986572 41.58007812 -0.03820801 C43.24200195 -0.01929504 43.24200195 -0.01929504 44.9375 0 C45.91138672 0.00318237 46.88527344 0.00636475 47.88867188 0.00964355 C51.27982566 0.67725289 52.44432128 1.74092988 54.46875 4.51757812 C54.97668457 7.09765625 54.97668457 7.09765625 54.98632812 10.04882812 C54.99893677 11.15677734 55.01154541 12.26472656 55.02453613 13.40625 C55.01643921 14.59798828 55.00834229 15.78972656 55 17.01757812 C55.0038269 18.24541016 55.00765381 19.47324219 55.01159668 20.73828125 C55.01431842 23.33399272 55.00693911 25.92973149 54.99023438 28.52539062 C54.96883075 32.50257412 54.99002963 36.47795094 55.015625 40.45507812 C55.01298177 42.97591545 55.00785691 45.49675166 55 48.01757812 C55.00809692 49.20931641 55.01619385 50.40105469 55.02453613 51.62890625 C55.00562317 53.29083008 55.00562317 53.29083008 54.98632812 54.98632812 C54.98314575 55.96021484 54.97996338 56.93410156 54.97668457 57.9375 C54.32671634 61.23904494 53.05337403 62.43335467 50.46875 64.51757812 C48.46875 65.04882812 48.46875 65.04882812 46.46875 65.01757812 C45.47875 65.03304687 45.47875 65.03304687 44.46875 65.04882812 C41.49992516 64.26023403 40.37479869 62.91011194 38.46875 60.51757812 C37.92285156 57.30957031 37.92285156 57.30957031 37.859375 53.56445312 C37.84283875 52.90423157 37.82630249 52.24401001 37.80926514 51.56378174 C37.76086549 49.46495186 37.73943481 47.36684591 37.71875 45.26757812 C37.69058317 43.84045853 37.66065472 42.41337254 37.62890625 40.98632812 C37.55511237 37.49690204 37.50548721 34.0076134 37.46875 30.51757812 C36.88822184 31.09902808 36.30769367 31.68047804 35.70957375 32.27954769 C21.59999817 46.41118383 7.4876732 60.54006909 -6.62773705 74.66587734 C-13.45370412 81.49700614 -20.278729 88.32907139 -27.1015625 95.16333008 C-33.04662426 101.11834242 -38.99342709 107.07160954 -44.94234908 113.0227657 C-48.09373923 116.17546231 -51.24423575 119.32904067 -54.3926506 122.48470879 C-57.35350636 125.45233064 -60.31667694 128.41762081 -63.28167152 131.38110733 C-64.37179891 132.47151078 -65.46106379 133.56277729 -66.5494175 134.6549511 C-68.03093178 136.1414118 -69.5154657 137.62478854 -71.00082397 139.10740662 C-71.83228125 139.93978568 -72.66373852 140.77216475 -73.52039146 141.62976742 C-76.88738363 144.79072765 -79.0076748 144.64013505 -83.54150391 144.63110352 C-84.80266022 144.63102798 -86.06381653 144.63095245 -87.3631897 144.63087463 C-88.74473103 144.62576762 -90.12627196 144.62055162 -91.5078125 144.61523438 C-92.9174291 144.61336956 -94.32704634 144.61194596 -95.73666382 144.61094666 C-99.44878932 144.60712646 -103.16087578 144.59730041 -106.87298584 144.58624268 C-110.66011019 144.57601788 -114.44724083 144.57144674 -118.234375 144.56640625 C-125.66668654 144.5556777 -133.09895783 144.53808492 -140.53125 144.51757812 C-139.87125 139.23757812 -139.21125 133.95757812 -138.53125 128.51757812 C-136.57708916 128.90073936 -136.57708916 128.90073936 -134.58345032 129.29164124 C-116.93229378 132.38421466 -95.72615417 134.51363861 -79.99128878 124.27209008 C-71.42240923 118.24520698 -63.88132204 110.9873235 -56.51171875 103.57617188 C-55.91810877 102.97921525 -55.3244988 102.38225862 -54.71290064 101.76721239 C-47.34571871 94.31400374 -40.22008614 86.64873563 -33.16718876 78.89890063 C-27.07009134 72.21073828 -20.81580997 65.67798861 -14.54751813 59.15067375 C-1.70040169 45.76587114 10.94831297 32.20811255 23.46875 18.51757812 C22.71255371 18.50299561 21.95635742 18.48841309 21.17724609 18.47338867 C17.73224723 18.39865813 14.28819079 18.30207885 10.84375 18.20507812 C9.65394531 18.18251953 8.46414063 18.15996094 7.23828125 18.13671875 C-3.92018545 17.79386083 -3.92018545 17.79386083 -8.53125 14.51757812 C-10.09596233 11.38815347 -10.22826958 7.90675589 -9.53125 4.51757812 C-6.5621367 0.81340983 -4.70291777 0.01536774 0 0 Z " fill="#3BC387" transform="translate(441.53125,47.482421875)"/>
<path d="M0 0 C-5.2970928 6.42387194 -11.12769186 12.27370912 -17.015625 18.1484375 C-18.07857606 19.2120633 -19.14137873 20.27583741 -20.20404053 21.3397522 C-22.41793647 23.5551139 -24.63360974 25.76867796 -26.85058594 27.98095703 C-29.69430719 30.81894663 -32.53346816 33.66144962 -35.37134171 36.50528526 C-37.5587853 38.69633511 -39.74859587 40.88500676 -41.93914032 43.07295609 C-42.98768286 44.12083134 -44.03548251 45.16945052 -45.08252716 46.21882248 C-46.53992086 47.6787475 -48.00046686 49.13544286 -49.46191406 50.59130859 C-50.29209045 51.42068939 -51.12226685 52.25007019 -51.9776001 53.10458374 C-54 55 -54 55 -56 56 C-57.63385137 55.72076151 -59.25428603 55.3617821 -60.86425781 54.9675293 C-80.41435704 50.63661555 -104.70308866 47.54558507 -122.61024475 58.61328888 C-149.68025797 77.5592149 -172.11490617 105.01452622 -193.51253128 129.93664074 C-194.07895718 130.59289598 -194.64538307 131.24915121 -195.22897339 131.92529297 C-195.71920424 132.49827118 -196.20943508 133.07124939 -196.71452141 133.66159058 C-199.0601938 136.10384831 -200.371241 136.02993879 -203.875 136.3125 C-206.82968653 136.25340627 -207.89058393 136.06564964 -210.5 134.5 C-212.19156465 131.68072559 -212.747934 129.42479536 -212.57828045 126.12684727 C-211.8639838 123.49974847 -210.77299762 122.21990321 -208.93501282 120.22044373 C-207.97998839 119.17659673 -207.97998839 119.17659673 -207.00567055 118.11166191 C-203.83156972 114.76982303 -200.6162515 111.47703968 -197.35229492 108.22290039 C-196.62296753 107.49182068 -195.89364014 106.76074097 -195.14221191 106.00750732 C-192.75745449 103.61838753 -190.36910471 101.23289781 -187.98046875 98.84765625 C-186.31360001 97.1801133 -184.64687969 95.51242197 -182.9803009 93.84458923 C-179.50126615 90.3640855 -176.02044214 86.88538391 -172.53833008 83.40795898 C-168.06806929 78.9434217 -163.60234859 74.47437422 -159.13793468 70.00399113 C-155.70405732 66.56650922 -152.26781297 63.13140143 -148.83083534 59.69701958 C-147.18220869 58.04906111 -145.5343276 56.40035644 -143.88719749 54.75090218 C-141.59411423 52.4552913 -139.29787081 50.16288994 -137.00073242 47.87133789 C-136.3176149 47.18619614 -135.63449738 46.50105438 -134.93067932 45.79515076 C-134.30698456 45.17427582 -133.68328979 44.55340088 -133.04069519 43.91371155 C-132.49855472 43.3719481 -131.95641424 42.83018465 -131.39784527 42.27200413 C-129.35933765 40.41701333 -128.37742188 39.98366367 -125.59223938 40.10421753 C-124.57735947 40.20630524 -123.56247955 40.30839294 -122.5168457 40.41357422 C-86.82199905 44.74972208 -86.82199905 44.74972208 -54.67353821 32.7791748 C-48.38846742 26.94495389 -42.94100683 20.69191625 -37.81958008 13.82177734 C-26.69328892 -0.80651068 -18.18531886 -2.77122024 0 0 Z " fill="#3CC286" transform="translate(228,256)"/>
<path d="M0 0 C15.84 0 31.68 0 48 0 C48 29.04 48 58.08 48 88 C32.16 88 16.32 88 0 88 C0 58.96 0 29.92 0 0 Z " fill="#2D85CC" transform="translate(120,368)"/>
<path d="M0 0 C2.875 1.8125 2.875 1.8125 5 5 C5.41111401 8.7052301 5.29247535 12.28881273 5 16 C6.10408203 15.91298828 6.10408203 15.91298828 7.23046875 15.82421875 C15.1846819 15.4564546 15.1846819 15.4564546 19.1875 18.125 C21.34663968 21.54984225 21.82630866 23.03371841 21 27 C19.15234375 29.65234375 19.15234375 29.65234375 16 32 C12.31336617 32.65854104 8.67423618 32.60875276 4.9375 32.5625 C-2.25275135 32.22033768 -2.25275135 32.22033768 -8.65234375 34.83984375 C-10.50627821 37.81151261 -10.57316925 39.56098451 -10 43 C-8.78198446 45.47479878 -8.78198446 45.47479878 -6 47 C-4.26036002 47.3657991 -2.50771002 47.6717713 -0.75 47.9375 C7.29015637 49.17938833 12.77423397 52.8349037 17.8125 59.1875 C21.28321805 64.48491176 21.79590846 70.84979828 21 77 C19.08618778 84.53964947 14.37855091 89.68889837 8 94 C7.01 94 6.02 94 5 94 C5.05800781 94.88042969 5.11601562 95.76085937 5.17578125 96.66796875 C5.54418419 106.15171289 5.54418419 106.15171289 2.875 110.3125 C-0.55342618 112.32483711 -2.0998583 112.81252952 -6 112 C-8.875 110.1875 -8.875 110.1875 -11 107 C-11.41111401 103.2947699 -11.29247535 99.71118727 -11 96 C-11.73605469 96.05800781 -12.47210938 96.11601562 -13.23046875 96.17578125 C-21.1846819 96.5435454 -21.1846819 96.5435454 -25.1875 93.875 C-27.34663968 90.45015775 -27.82630866 88.96628159 -27 85 C-25.15234375 82.34765625 -25.15234375 82.34765625 -22 80 C-18.31336617 79.34145896 -14.67423618 79.39124724 -10.9375 79.4375 C-3.74724865 79.77966232 -3.74724865 79.77966232 2.65234375 77.16015625 C4.50627821 74.18848739 4.57316925 72.43901549 4 69 C1.88628667 66.30353393 0.63986782 65.14442731 -2.734375 64.3828125 C-3.72953125 64.29773438 -4.7246875 64.21265625 -5.75 64.125 C-13.41983371 63.06000482 -17.77714875 59.61502457 -22.875 54 C-26.92775052 48.27846986 -27.72371712 42.85196696 -27 36 C-25.41112197 28.33005243 -20.43406839 22.28937893 -14 18 C-13.01 18 -12.02 18 -11 18 C-11.08701172 16.67935547 -11.08701172 16.67935547 -11.17578125 15.33203125 C-11.54418419 5.84828711 -11.54418419 5.84828711 -8.875 1.6875 C-5.44657382 -0.32483711 -3.9001417 -0.81252952 0 0 Z " fill="#FFB632" transform="translate(219,112)"/>
<path d="M0 0 C15.84 0 31.68 0 48 0 C48 15.84 48 31.68 48 48 C32.16 48 16.32 48 0 48 C0 32.16 0 16.32 0 0 Z " fill="#2D85CC" transform="translate(40,408)"/>
</svg>
